# xmcd
#
# Track frame offsets:
#	150
#	21515
#	31802
#	53735
#	63677
#	73875
#	84437
#	102295
#	115277
#	127727
#	154335
#	165832
#
# Disc length: 2413 seconds
#
# Revision: 1
# Processed by: cddbd v1.5.1PL0 Copyright (c) Steve Scherf et al.
# Submitted via: CDex 1.50Beta5
#
DISCID=9a096b0c
DTITLE=倉本裕基 - テレビドラマサウンドトラック集II
DYEAR=1996
DGENRE=New Age
TTITLE0=美しい季節に
TTITLE1=風をきる白馬
TTITLE2=片時のシンデレラ
TTITLE3=愛の香り
TTITLE4=行進なのだ
TTITLE5=美しい季節に
TTITLE6=流れゆく時
TTITLE7=ほのかな愛
TTITLE8=望郷の歌
TTITLE9=大陸にて
TTITLE10=ふるさとへの渇望
TTITLE11=ほのかな愛
EXTD=
EXTT0=
EXTT1=
EXTT2=
EXTT3=
EXTT4=
EXTT5=
EXTT6=
EXTT7=
EXTT8=
EXTT9=
EXTT10=
EXTT11=
PLAYORDER=
